<svg xmlns="http://www.w3.org/2000/svg" width="25.5" height="25.5" viewBox="0 0 25.5 25.5">
  <path class="cls-1" d="M1331.5,4540.75a12.752,12.752,0,0,0-5.12,24.43,11.866,11.866,0,0,1,.22-2.93c0.25-1.04,1.64-6.95,1.64-6.95a4.954,4.954,0,0,1-.4-2.02c0-1.89,1.09-3.3,2.46-3.3a1.709,1.709,0,0,1,1.72,1.92c0,1.16-.75,2.91-1.13,4.52a1.974,1.974,0,0,0,2.01,2.46c2.42,0,4.05-3.1,4.05-6.78,0-2.79-1.89-4.89-5.31-4.89a6.043,6.043,0,0,0-6.28,6.11,3.7,3.7,0,0,0,.84,2.5,0.623,0.623,0,0,1,.19.71c-0.06.23-.2,0.8-0.26,1.02a0.439,0.439,0,0,1-.64.32c-1.78-.72-2.61-2.67-2.61-4.87,0-3.62,3.05-7.96,9.11-7.96,4.87,0,8.07,3.52,8.07,7.3,0,5-2.78,8.74-6.88,8.74a3.64,3.64,0,0,1-3.11-1.59s-0.74,2.94-.9,3.51a10.9,10.9,0,0,1-1.28,2.73,12.6,12.6,0,0,0,3.61.52,12.75,12.75,0,0,0,0-25.5" transform="translate(-1318.75 -4540.75)"/>
</svg>
