<svg xmlns="http://www.w3.org/2000/svg" width="26.19" height="20.96" viewBox="0 0 26.19 20.96">
  <path class="cls-1" d="M1244.29,4545.6a10.955,10.955,0,0,1-3.08.83,5.285,5.285,0,0,0,2.36-2.93,10.853,10.853,0,0,1-3.42,1.29,5.39,5.39,0,0,0-9.29,3.62,5.255,5.255,0,0,0,.13,1.2,15.341,15.341,0,0,1-11.08-5.53,5.267,5.267,0,0,0,1.67,7.07,5.321,5.321,0,0,1-2.44-.66v0.07a5.322,5.322,0,0,0,4.31,5.19,5.653,5.653,0,0,1-2.42.09,5.385,5.385,0,0,0,5.02,3.68,11.1,11.1,0,0,1-7.96,2.19,15.4,15.4,0,0,0,8.24,2.38,15.075,15.075,0,0,0,15.3-15.07c0-.23-0.01-0.46-0.02-0.68a10.735,10.735,0,0,0,2.68-2.74" transform="translate(-1218.09 -4543.13)"/>
</svg>
